<svg xmlns="http://www.w3.org/2000/svg" viewBox="0 0 99.06 99.09"><defs><style>.cls-1{fill:#fff;}</style></defs><title>Varlık 2</title><g id="katman_2" data-name="katman 2"><g id="katman_3" data-name="katman 3"><path class="cls-1" d="M94.47,28.7c-.31-.68-.63-1.36-1-2A50.24,50.24,0,0,0,88,18.26c-30.22,14.17-66.18,18.59-86.64,20A49.33,49.33,0,0,0,3.49,67.81c26.56-8.66,69-23.88,90.78-38.94ZM24.75,52.19c-4.65,2.42-9,3.24-9.74,1.83s2.44-4.5,7.09-6.92,9-3.24,9.73-1.83S29.39,49.77,24.75,52.19Z"/><path class="cls-1" d="M26.67,5.6A49.37,49.37,0,0,0,5.23,27.4C17.5,23.61,45.05,14.19,61.66,1.52A49.33,49.33,0,0,0,26.67,5.6ZM42.89,8.44c-1.4.73-3,.48-3.52-.56s.16-2.47,1.57-3.2,3-.49,3.52.55S44.3,7.71,42.89,8.44Z"/><path class="cls-1" d="M93.13,72.91a148,148,0,0,0-50.5,25.63h0v0A49.48,49.48,0,0,0,93.2,72.93ZM59.66,93.07c-1.4.74-2.8.83-3.12.22s.57-1.7,2-2.43,2.8-.83,3.12-.22S61.07,92.34,59.66,93.07Z"/><path class="cls-1" d="M98.61,43.36,24.93,92.43v.08a48.9,48.9,0,0,0,9.76,4.27l0,0h0c11-9.9,33.53-27.41,62.87-35.92l.21-.08a49.65,49.65,0,0,0,.91-17.42Zm-5,13.8c-.8.41-2-.35-2.71-1.69s-.62-2.77.17-3.18,2,.34,2.71,1.68S94.35,56.74,93.56,57.16Z"/><path class="cls-1" d="M17.82,87.07C62.16,61.68,34.41,62.72,8.31,76.85l0,.06A49.17,49.17,0,0,0,17.4,87.23,2.61,2.61,0,0,1,17.82,87.07Z"/></g></g></svg>